<svg width="1107" height="1639" viewBox="0 0 1107 1639" fill="none" xmlns="http://www.w3.org/2000/svg">
<path d="M473.957 668.134L474.72 668.735C465.87 688.094 457.75 707.949 449.607 727.862C443.848 741.943 438.078 756.052 432.029 770.036C417.438 803.768 401.255 836.697 379.792 866.47L379.791 866.471C375.283 872.697 371.226 879.219 367.65 885.989C366.916 887.382 365.599 889.117 364.071 890.991C363.302 891.933 362.474 892.918 361.629 893.922L361.549 894.017C360.729 894.991 359.895 895.982 359.083 896.972C357.404 899.019 355.831 901.044 354.687 902.878C353.528 904.735 352.87 906.303 352.896 907.457L352.896 907.459C352.912 908.391 352.701 909.932 352.315 911.965C351.927 914.011 351.353 916.596 350.625 919.636C349.167 925.718 347.085 933.64 344.616 942.76C342.27 951.428 339.572 961.181 336.727 971.469L336.281 973.084C333.271 983.966 330.11 995.409 327.032 1006.77C320.876 1029.5 315.059 1051.9 311.466 1068.85C309.668 1077.33 308.431 1084.43 307.984 1089.51C307.76 1092.06 307.736 1094.08 307.929 1095.5C308.026 1096.22 308.173 1096.75 308.357 1097.12C308.54 1097.49 308.735 1097.65 308.912 1097.71C312.039 1098.8 315.077 1101.37 318.042 1104.96C321.013 1108.56 323.948 1113.24 326.856 1118.62C332.617 1129.27 338.31 1142.75 343.995 1156.21L344.154 1156.59C349.898 1170.19 355.634 1183.74 361.44 1194.38C364.343 1199.7 367.254 1204.27 370.18 1207.76C373.112 1211.25 376.022 1213.59 378.912 1214.53C385.713 1216.74 407.937 1225.18 434.186 1235.15C443.403 1238.65 453.117 1242.34 462.833 1246.02C481.534 1253.09 500.251 1260.11 515.479 1265.62C530.724 1271.14 542.43 1275.14 547.135 1276.19C553.633 1277.62 567.81 1283.16 585.764 1290.7C601.014 1297.1 619.03 1304.95 637.463 1312.98C640.76 1314.42 644.07 1315.86 647.379 1317.3C669.199 1326.8 691.015 1336.24 708.991 1343.54C717.979 1347.19 726.003 1350.3 732.584 1352.61C739.176 1354.93 744.286 1356.44 747.464 1356.89C751.064 1357.41 754.468 1355.92 757.76 1352.79C761.057 1349.65 764.191 1344.9 767.218 1339.04C773.27 1327.32 778.817 1311.29 784.38 1295.17L784.534 1294.72C790.038 1278.77 795.563 1262.76 801.598 1250.87C804.643 1244.87 807.836 1239.89 811.248 1236.48C814.663 1233.08 818.35 1231.21 822.359 1231.57C822.405 1231.58 822.43 1231.57 822.445 1231.57C822.454 1231.56 822.459 1231.56 822.463 1231.56C822.482 1231.54 822.531 1231.49 822.58 1231.36C822.682 1231.06 822.724 1230.55 822.66 1229.77C822.533 1228.22 822.021 1225.89 821.161 1222.86C819.443 1216.82 816.375 1208.1 812.397 1197.58C804.861 1177.64 794.077 1151.26 783.073 1124.35L781.232 1119.84C769.602 1091.39 757.914 1062.7 749.741 1040.75C745.655 1029.77 742.442 1020.47 740.554 1013.71C739.611 1010.33 738.993 1007.57 738.765 1005.55C738.652 1004.54 738.632 1003.69 738.73 1003.02C738.825 1002.38 739.048 1001.78 739.54 1001.47C741.274 1000.35 742.075 997.875 742.131 994.396C742.185 990.955 741.507 986.719 740.496 982.342C739.019 975.947 736.855 969.343 735.292 964.575C734.714 962.81 734.218 961.297 733.87 960.138L733.869 960.135C719.159 910.142 714.403 858.748 711.534 807.662C710.761 794.275 710.567 781.084 710.374 767.912L710.365 767.25C710.168 753.855 709.962 740.478 709.138 726.912L709.138 726.911C708.467 715.668 709.454 704.529 710.633 693.428C710.792 691.933 710.954 690.438 711.116 688.944C712.159 679.337 713.2 669.753 713.301 660.104L713.302 660.102C713.575 640.739 707.723 625.995 697.121 613.898C686.503 601.782 671.099 592.295 652.223 583.506L652.223 583.506C651.007 582.938 649.784 582.366 648.553 581.79C627.004 571.707 603.123 560.533 579.38 555.57C554.299 550.327 529.443 552.029 507.695 569.237L507.695 569.237C484.773 587.354 481.339 612.566 477.858 638.114C477.526 640.555 477.193 642.998 476.843 645.439C476.843 645.439 476.843 645.439 476.843 645.44L476.348 645.369L473.957 668.134ZM473.957 668.134C472.371 669.377 471.202 670.182 470.371 670.623M473.957 668.134L470.371 670.623M470.371 670.623C469.954 670.844 469.649 670.958 469.437 670.999M470.371 670.623L469.437 670.999M469.437 670.999C469.27 671.031 469.207 671.011 469.193 671.005M469.437 670.999L469.193 671.005M469.193 671.005C469.189 671.003 469.19 671.002 469.193 671.005C469.197 671.007 469.196 671.008 469.193 671.005Z" fill="#E9EAEC" stroke="black"/>
<path d="M434.215 35.703L434.215 35.7025C433.735 32.2671 435.582 27.414 440.436 23.2233C445.273 19.0466 453.069 15.5637 464.354 14.9023C470.848 14.5245 477.727 16.7463 484.816 21.087C491.903 25.4271 499.169 31.8672 506.423 39.8736C520.929 55.8864 535.333 78.1059 548.106 102.131C560.877 126.153 572.007 151.959 579.972 175.13C587.943 198.317 592.728 218.817 592.845 232.246C593.002 251.293 593.437 265.226 594.311 275.512C595.185 285.789 596.501 292.47 598.445 296.988C600.404 301.541 603.001 303.895 606.377 305.513C608.048 306.314 609.904 306.932 611.942 307.552C612.544 307.735 613.161 307.918 613.795 308.106C615.319 308.559 616.942 309.04 618.684 309.62L618.826 309.196L618.685 309.62C626.177 312.111 633.924 312.67 642.536 313.291C643.456 313.358 644.387 313.425 645.328 313.495C655.088 314.224 666.056 315.292 679.187 319.374C705.447 327.538 740.441 347.785 791.62 401.669L791.982 401.324L791.62 401.669C793.989 404.162 794.087 407.409 793.773 411.056C793.718 411.693 793.65 412.347 793.581 413.008C793.457 414.205 793.33 415.428 793.273 416.625C793.183 418.499 793.258 420.384 793.78 422.183C796.293 430.976 798.607 439.532 800.489 448.464C804.553 469.62 813.518 489.604 826.708 506.909L826.714 506.917C831.518 512.969 838.424 517.738 845.187 522.408C846.635 523.408 848.077 524.404 849.49 525.406C857.554 531.128 864.694 537.08 867.29 545.453C875.896 573.357 889.477 599.582 907.419 622.938C920.317 647.239 912.557 677.152 901.69 700.733L901.686 700.741L901.683 700.75C899.279 706.519 895.038 711.397 889.574 714.673C884.11 717.948 877.709 719.449 871.303 718.956L871.292 718.955L871.282 718.954C869.992 718.91 867.914 718.292 865.391 717.304C862.889 716.324 860.014 715.007 857.158 713.615C852.36 711.275 847.642 708.734 844.878 707.245C844.353 706.963 843.898 706.718 843.527 706.519L843.146 706.316L842.89 706.663C840.923 709.323 839.456 712.1 837.907 715.031C837.81 715.214 837.713 715.398 837.615 715.583C835.953 718.724 834.146 722.066 831.48 725.72C826.153 733.022 817.361 741.617 799.389 752.238L799.38 752.244L799.371 752.249C793.36 756.152 786.897 759.356 780.113 761.794C760.436 768.215 735.864 768.006 709.135 765.902C699.221 765.122 689.006 764.08 678.643 763.023C661.108 761.235 643.148 759.403 625.501 758.721C621.276 758.556 613.212 759.838 603.3 761.8C594.403 763.561 583.962 765.883 573.365 768.239C572.129 768.514 570.892 768.789 569.654 769.064C557.798 771.698 545.949 774.298 536.022 776.137C531.058 777.057 526.581 777.785 522.828 778.233C519.066 778.681 516.063 778.843 514.033 778.644C464.678 773.72 418.591 754.151 389.915 720.856C361.261 687.587 349.932 640.546 370.194 580.51C372.188 574.66 372.733 566.826 372.362 558.077C371.992 549.319 370.701 539.6 368.995 529.958C365.745 511.594 360.98 493.471 358.158 482.741C358.017 482.204 357.881 481.686 357.75 481.187C352.918 462.79 344.31 431.654 338.095 413.769C331.376 393.979 316.767 377.17 302.074 362.711C297.522 358.231 292.947 353.963 288.594 349.902C285.926 347.413 283.342 345.002 280.897 342.667C274.445 336.507 268.954 330.869 265.352 325.659L264.941 325.944L265.352 325.659C224.953 267.269 218.296 232.021 218.296 222.643C218.296 222.248 218.179 221.389 217.981 220.175C217.78 218.942 217.485 217.297 217.112 215.295C216.367 211.291 215.305 205.851 214.043 199.415C213.806 198.207 213.563 196.964 213.312 195.688C210.895 183.371 207.888 168.045 204.969 152.313C201.748 134.951 198.636 117.1 196.545 102.256C195.5 94.8345 194.711 88.1704 194.291 82.6986C193.871 77.225 193.824 72.9862 194.243 70.3779C194.245 70.3724 194.251 70.3539 194.265 70.3191C194.286 70.2657 194.32 70.1919 194.366 70.0981C194.459 69.911 194.599 69.6579 194.789 69.3514C195.169 68.739 195.744 67.924 196.536 67.011C198.12 65.1851 200.567 62.9739 204.052 61.2035C211.005 57.6719 222.176 55.853 239.038 62.519C255.916 69.1912 278.474 84.3586 308.138 114.778C337.799 145.194 374.54 190.836 419.789 258.421C422.183 262.012 427.295 267.181 432.44 272.384C432.689 272.636 432.938 272.888 433.187 273.14C438.619 278.635 443.938 284.08 446.218 287.808C446.844 288.836 448.222 290.243 449.848 290.952C450.668 291.309 451.581 291.501 452.505 291.347C453.439 291.19 454.335 290.688 455.122 289.745C456.671 287.89 457.82 284.309 458.161 278.084C458.504 271.835 458.035 262.832 456.255 250.037C450.501 208.76 446.122 163.329 442.615 124.139C441.804 115.071 441.039 106.336 440.315 98.063C437.911 70.5969 435.953 48.2296 434.215 35.703Z" fill="#F4F9FF" stroke="black"/>
<path d="M287.101 281.209L287.101 281.209C298.367 301.189 311.612 321.166 329.699 336.88L329.371 337.257L329.699 336.88C330.756 337.798 331.88 338.783 333.064 339.82C342.503 348.087 355.723 359.666 368.805 367.433C376.169 371.804 383.439 374.937 389.93 375.616C396.391 376.29 402.061 374.536 406.336 369.133C420.217 351.558 418.805 333.666 417.515 317.313C417.445 316.427 417.375 315.546 417.308 314.67M287.101 281.209L406.728 369.443C420.734 351.711 419.306 333.636 418.015 317.297C417.944 316.403 417.874 315.515 417.807 314.632C415.45 284.159 389.795 254.944 367.44 232.433M287.101 281.209L287.097 281.202C266.474 245.923 255.506 206.119 255.228 165.578C297.615 178.786 336.021 201.86 367.087 232.786M287.101 281.209L367.44 232.433M417.308 314.67C417.308 314.67 417.308 314.67 417.308 314.669L417.801 314.632L417.308 314.67C417.308 314.67 417.308 314.67 417.308 314.67ZM417.308 314.67C416.139 299.557 409.188 284.72 399.71 270.829C390.234 256.941 378.258 244.036 367.087 232.786M367.087 232.786C367.087 232.787 367.087 232.787 367.088 232.787L367.44 232.433M367.087 232.786C367.087 232.786 367.086 232.785 367.086 232.785L367.44 232.433" fill="#B2819A" stroke="black"/>
<path d="M282.266 174.84C288.749 179.525 366.224 239.364 382.724 267.627C391.328 282.33 403.508 316.04 407.24 331.581C415.412 365.558 416.708 366.891 419.38 326.515C424.919 242.183 275.077 169.659 282.266 174.84Z" fill="#654656"/>
<path d="M328.742 393.44C319.195 385.479 309.099 375.423 298.019 368.796C292.988 366.045 288.181 362.925 283.64 359.464C279.712 356.264 273.858 356.683 269.811 353.179C272.325 350.17 279.083 353.941 282.187 355.121C286.071 356.499 290.193 357.132 294.326 356.988C293.305 352.569 286.469 348.456 283.208 345.561C278.605 341.614 273.722 337.986 268.593 334.705C264.389 332.077 260.146 329.525 255.943 327.087C250.049 323.278 245.139 318.212 237.556 317.603C242.467 316.384 247.024 322.288 251.424 323.507C247.555 319.706 243.274 316.322 238.656 313.413C236.228 312.214 234.024 310.63 232.134 308.728C236.692 308.08 241.917 309.527 246.199 308.27C240.581 298.443 228.795 294.101 220.937 286.788C219.72 285.645 216.223 282.979 216.341 281.379C216.655 277.341 226.123 278.522 228.598 278.903C238.538 280.426 246.081 282.712 252.917 289.53C258.697 296.143 264.113 303.047 269.143 310.213C273.465 315.584 279.554 317.45 285.212 321.031C293.475 326.731 300.211 334.267 304.856 343.009C311.904 355.23 317.96 367.965 322.967 381.099C322.181 380.109 322.024 379.27 328.742 393.44Z" fill="#E9EAEC"/>
<mask id="path-6-inside-1_1739_3" fill="white">
<path d="M438.358 37.0672C435.962 23.4689 435.373 11.5847 428.301 0.157654C429.833 3.70005 433.565 5.60467 436.433 8.11863C439.301 10.6326 441.541 14.8605 444.527 17.4887C445.587 15.1271 443.702 11.4705 442.759 8.9565C446.687 10.8229 446.687 17.2602 450.616 19.6599C453.523 18.0982 451.323 8.766 451.638 5.33788C455.92 5.33788 458.199 10.9753 460.713 13.7178C464.642 18.1363 464.956 17.9459 470.613 18.3649C476.271 18.7839 480.2 24.1926 483.618 28.6872C485.93 31.6337 488.45 34.421 491.161 37.029C497.231 43.3057 502.652 50.1438 507.347 57.4454C511.148 63.7019 515.904 69.3653 521.451 74.2433C521.982 69.8055 521.863 65.3172 521.098 60.9117C520.626 56.2647 517.798 50.056 518.662 45.6756C523.494 49.1418 526.519 54.8934 529.82 59.4643C532.805 63.2733 536.538 66.8157 539.759 70.6247C542.981 74.4337 545.653 78.2427 548.796 82.0518C555.082 89.6698 557.282 100.716 560.778 109.629C569.854 132.483 577.436 155.338 577.397 180.211"/>
</mask>
<path d="M438.358 37.0672C435.962 23.4689 435.373 11.5847 428.301 0.157654C429.833 3.70005 433.565 5.60467 436.433 8.11863C439.301 10.6326 441.541 14.8605 444.527 17.4887C445.587 15.1271 443.702 11.4705 442.759 8.9565C446.687 10.8229 446.687 17.2602 450.616 19.6599C453.523 18.0982 451.323 8.766 451.638 5.33788C455.92 5.33788 458.199 10.9753 460.713 13.7178C464.642 18.1363 464.956 17.9459 470.613 18.3649C476.271 18.7839 480.2 24.1926 483.618 28.6872C485.93 31.6337 488.45 34.421 491.161 37.029C497.231 43.3057 502.652 50.1438 507.347 57.4454C511.148 63.7019 515.904 69.3653 521.451 74.2433C521.982 69.8055 521.863 65.3172 521.098 60.9117C520.626 56.2647 517.798 50.056 518.662 45.6756C523.494 49.1418 526.519 54.8934 529.82 59.4643C532.805 63.2733 536.538 66.8157 539.759 70.6247C542.981 74.4337 545.653 78.2427 548.796 82.0518C555.082 89.6698 557.282 100.716 560.778 109.629C569.854 132.483 577.436 155.338 577.397 180.211" fill="#F4F9FF"/>
<path d="M428.301 0.157654L429.151 -0.368584L427.383 0.554644L428.301 0.157654ZM444.527 17.4887L443.866 18.2393L444.883 19.135L445.439 17.8984L444.527 17.4887ZM442.759 8.9565L443.188 8.05325L440.954 6.99196L441.822 9.30768L442.759 8.9565ZM450.616 19.6599L450.095 20.5133L450.584 20.8122L451.089 20.5408L450.616 19.6599ZM451.638 5.33788V4.33788H450.725L450.642 5.24658L451.638 5.33788ZM460.713 13.7178L461.46 13.0533L461.455 13.0476L461.45 13.042L460.713 13.7178ZM483.618 28.6872L482.822 29.2926L482.826 29.2986L482.831 29.3046L483.618 28.6872ZM491.161 37.029L491.88 36.3338L491.867 36.3209L491.854 36.3084L491.161 37.029ZM507.347 57.4454L508.202 56.9261L508.195 56.9152L508.188 56.9045L507.347 57.4454ZM521.451 74.2433L520.791 74.9943L522.219 76.2496L522.444 74.362L521.451 74.2433ZM521.098 60.9117L520.103 61.0126L520.106 61.0479L520.113 61.0828L521.098 60.9117ZM518.662 45.6756L519.245 44.863L517.982 43.9571L517.681 45.482L518.662 45.6756ZM529.82 59.4643L529.009 60.0496L529.02 60.0656L529.033 60.0812L529.82 59.4643ZM560.778 109.629L559.847 109.994L559.849 109.998L560.778 109.629ZM439.343 36.8936C436.973 23.447 436.355 11.2714 429.151 -0.368584L427.45 0.683892C434.39 11.8981 434.95 23.4908 437.374 37.2407L439.343 36.8936ZM427.383 0.554644C428.241 2.53881 429.698 4.0217 431.227 5.29272C431.991 5.92781 432.796 6.52902 433.565 7.11004C434.343 7.69775 435.087 8.26864 435.774 8.87062L437.092 7.36663C436.345 6.71163 435.548 6.10171 434.771 5.51455C433.986 4.92071 433.225 4.35299 432.505 3.75489C431.068 2.55952 429.893 1.31889 429.219 -0.239337L427.383 0.554644ZM435.774 8.87062C437.117 10.048 438.332 11.6447 439.64 13.3658C440.918 15.0486 442.284 16.8472 443.866 18.2393L445.187 16.7381C443.783 15.5019 442.536 13.8725 441.232 12.1558C439.957 10.4774 438.617 8.70326 437.092 7.36663L435.774 8.87062ZM445.439 17.8984C446.128 16.364 445.818 14.5485 445.352 12.9926C444.885 11.4342 444.128 9.75916 443.695 8.60532L441.822 9.30768C442.332 10.6678 442.99 12.078 443.436 13.5669C443.883 15.0582 443.986 16.2518 443.614 17.079L445.439 17.8984ZM442.329 9.85975C443.908 10.6097 444.76 12.3043 445.778 14.5249C446.725 16.5897 447.82 19.1236 450.095 20.5133L451.137 18.8065C449.484 17.7964 448.614 15.9119 447.596 13.6915C446.65 11.6269 445.538 9.16971 443.188 8.05325L442.329 9.85975ZM451.089 20.5408C452.24 19.9227 452.722 18.639 452.942 17.4231C453.171 16.1587 453.173 14.6454 453.098 13.149C453.023 11.6477 452.865 10.0772 452.751 8.71818C452.633 7.31947 452.564 6.1831 452.633 5.42918L450.642 5.24658C450.554 6.20672 450.643 7.52241 450.758 8.88645C450.876 10.2901 451.028 11.7931 451.1 13.2485C451.173 14.7089 451.16 16.0357 450.974 17.0674C450.779 18.1478 450.446 18.6161 450.143 18.7789L451.089 20.5408ZM451.638 6.33788C453.297 6.33788 454.678 7.42135 456.061 9.12882C456.742 9.969 457.371 10.8938 458.015 11.8214C458.644 12.7285 459.294 13.6503 459.976 14.3936L461.45 13.042C460.874 12.4141 460.297 11.6028 459.658 10.6815C459.033 9.7807 458.354 8.78195 457.615 7.86997C456.16 6.0731 454.26 4.33788 451.638 4.33788V6.33788ZM459.966 14.3823C461.901 16.5587 463.102 17.7976 464.615 18.4577C466.091 19.1017 467.815 19.1604 470.54 19.3622L470.687 17.3677C467.755 17.1505 466.493 17.0948 465.415 16.6246C464.374 16.1705 463.454 15.2954 461.46 13.0533L459.966 14.3823ZM470.54 19.3622C473.053 19.5483 475.244 20.8442 477.275 22.7303C479.314 24.6252 481.095 27.0215 482.822 29.2926L484.414 28.0819C482.723 25.8583 480.829 23.303 478.636 21.2651C476.433 19.2185 473.831 17.6005 470.687 17.3677L470.54 19.3622ZM482.831 29.3046C485.172 32.2878 487.724 35.1096 490.467 37.7496L491.854 36.3084C489.177 33.7325 486.688 30.9797 484.404 28.0699L482.831 29.3046ZM490.442 37.7242C496.467 43.9539 501.847 50.7403 506.506 57.9862L508.188 56.9045C503.458 49.5473 497.995 42.6576 491.88 36.3338L490.442 37.7242ZM506.493 57.9646C510.347 64.3086 515.168 70.05 520.791 74.9943L522.112 73.4923C516.639 68.6807 511.95 63.0952 508.202 56.9261L506.493 57.9646ZM522.444 74.362C522.986 69.8277 522.865 65.2418 522.083 60.7406L520.113 61.0828C520.861 65.3927 520.977 69.7833 520.458 74.1246L522.444 74.362ZM522.093 60.8108C521.848 58.3945 520.987 55.5493 520.35 52.9553C519.689 50.2628 519.259 47.8163 519.643 45.8692L517.681 45.482C517.201 47.9152 517.753 50.7634 518.408 53.4321C519.087 56.1992 519.877 58.7819 520.103 61.0126L522.093 60.8108ZM518.079 46.4882C520.368 48.1299 522.258 50.3351 524.006 52.7431C524.879 53.9457 525.707 55.1853 526.531 56.4232C527.352 57.6551 528.171 58.8885 529.009 60.0496L530.63 58.8789C529.819 57.7546 529.022 56.555 528.196 55.3146C527.374 54.0802 526.525 52.8082 525.625 51.5683C523.827 49.0912 521.788 46.6875 519.245 44.863L518.079 46.4882ZM529.033 60.0812C530.554 62.0222 532.259 63.8873 533.969 65.7254C535.687 67.573 537.404 69.3887 538.996 71.2705L540.523 69.9789C538.893 68.0516 537.133 66.1916 535.433 64.3635C533.725 62.526 532.071 60.7154 530.607 58.8473L529.033 60.0812ZM538.996 71.2705C540.59 73.1552 542.05 75.0429 543.514 76.9475C544.974 78.8474 546.439 80.7674 548.024 82.6882L549.567 81.4153C548.009 79.5271 546.567 77.638 545.1 75.7289C543.636 73.8245 542.15 71.9032 540.523 69.9789L538.996 71.2705ZM548.024 82.6882C551.059 86.366 553.134 90.9056 554.894 95.6995C555.774 98.0944 556.567 100.53 557.365 102.945C558.161 105.352 558.962 107.738 559.847 109.994L561.709 109.264C560.846 107.064 560.061 104.726 559.264 102.317C558.47 99.9163 557.665 97.4431 556.772 95.0101C554.986 90.1481 552.818 85.3556 549.567 81.4153L548.024 82.6882ZM559.849 109.998C568.916 132.831 576.436 155.536 576.397 180.209L578.397 180.212C578.436 155.139 570.792 132.136 561.708 109.26L559.849 109.998Z" fill="black" mask="url(#path-6-inside-1_1739_3)"/>
<mask id="path-8-inside-2_1739_3" fill="white">
<path d="M203.926 108.142C199.251 96.0292 196.461 81.0599 185.854 72.3754C189.075 83.2311 195.361 94.9627 195.833 106.237C195.833 111.837 188.604 112.979 187.975 107.533C193.043 114.503 193.829 125.778 195.833 133.815C197.127 140.787 199.469 147.538 202.786 153.85C204.633 156.669 207.226 158.84 208.994 161.697C211.587 165.849 212.923 170.991 215.28 175.295C217.637 179.599 225.455 185.884 225.22 190.531"/>
</mask>
<path d="M203.926 108.142C199.251 96.0292 196.461 81.0599 185.854 72.3754C189.075 83.2311 195.361 94.9627 195.833 106.237C195.833 111.837 188.604 112.979 187.975 107.533C193.043 114.503 193.829 125.778 195.833 133.815C197.127 140.787 199.469 147.538 202.786 153.85C204.633 156.669 207.226 158.84 208.994 161.697C211.587 165.849 212.923 170.991 215.28 175.295C217.637 179.599 225.455 185.884 225.22 190.531" fill="#E9EAEC"/>
<path d="M185.854 72.3754L186.487 71.6016L183.969 69.5401L184.895 72.6599L185.854 72.3754ZM195.833 106.237H196.833V106.217L196.832 106.196L195.833 106.237ZM187.975 107.533L188.784 106.945L186.545 103.866L186.982 107.647L187.975 107.533ZM195.833 133.815L196.816 133.632L196.81 133.603L196.803 133.573L195.833 133.815ZM202.786 153.85L201.901 154.315L201.924 154.358L201.95 154.398L202.786 153.85ZM208.994 161.697L208.144 162.223L208.146 162.227L208.994 161.697ZM204.859 107.782C203.7 104.78 202.658 101.6 201.57 98.3474C200.485 95.1049 199.357 91.7981 198.039 88.5928C195.405 82.1856 191.977 76.0961 186.487 71.6016L185.22 73.1491C190.338 77.3392 193.609 83.0766 196.189 89.3534C197.479 92.49 198.588 95.7395 199.673 98.9819C200.754 102.214 201.814 105.447 202.993 108.502L204.859 107.782ZM184.895 72.6599C186.514 78.1165 188.928 83.8653 190.932 89.4853C192.958 95.1641 194.604 100.799 194.833 106.279L196.832 106.196C196.589 100.401 194.857 94.5329 192.816 88.8133C190.755 83.0349 188.414 77.4899 186.812 72.0909L184.895 72.6599ZM194.833 106.237C194.833 108.548 193.379 109.814 191.98 110.04C191.271 110.155 190.59 110.005 190.066 109.614C189.553 109.231 189.099 108.549 188.968 107.418L186.982 107.647C187.165 109.24 187.851 110.457 188.87 111.217C189.878 111.969 191.122 112.205 192.299 112.015C194.671 111.631 196.833 109.526 196.833 106.237H194.833ZM187.166 108.121C189.577 111.436 191.005 115.833 192.078 120.498C192.613 122.822 193.054 125.182 193.49 127.484C193.923 129.776 194.353 132.015 194.862 134.057L196.803 133.573C196.31 131.596 195.89 129.412 195.455 127.112C195.021 124.821 194.573 122.42 194.027 120.05C192.94 115.325 191.441 110.599 188.784 106.945L187.166 108.121ZM194.849 133.997C196.162 141.069 198.538 147.915 201.901 154.315L203.672 153.385C200.401 147.161 198.091 140.506 196.816 133.632L194.849 133.997ZM201.95 154.398C202.919 155.878 204.08 157.18 205.168 158.419C206.273 159.677 207.31 160.875 208.144 162.223L209.844 161.171C208.91 159.661 207.766 158.346 206.671 157.099C205.559 155.834 204.5 154.641 203.623 153.302L201.95 154.398ZM208.146 162.227C209.391 164.221 210.345 166.47 211.299 168.816C212.242 171.135 213.19 173.561 214.403 175.775L216.157 174.815C215.013 172.725 214.114 170.428 213.152 168.062C212.2 165.722 211.19 163.325 209.842 161.167L208.146 162.227ZM214.403 175.775C215.043 176.945 216.03 178.21 217.094 179.48C218.207 180.81 219.319 182.049 220.451 183.421C221.55 184.754 222.534 186.055 223.226 187.285C223.926 188.53 224.266 189.596 224.221 190.48L226.218 190.582C226.291 189.143 225.743 187.681 224.969 186.305C224.188 184.916 223.113 183.506 221.993 182.148C220.905 180.83 219.635 179.4 218.627 178.196C217.569 176.932 216.695 175.797 216.157 174.815L214.403 175.775Z" fill="black" mask="url(#path-8-inside-2_1739_3)"/>
<path d="M794.101 415.075C783.14 390.735 773.082 368.072 751.356 350.322C744.52 344.76 738.706 337.79 730.927 333.067C722.103 327.985 712.651 324.004 702.797 321.221C693.091 318.418 683.173 316.355 673.135 315.05C665.278 313.831 659.384 311.622 651.213 312.041C643.041 312.46 625.086 312.041 620.568 319.964C624.497 323.773 633.69 324.344 639.387 325.372C648.305 326.934 657.184 328.42 666.103 330.019C688.025 333.828 709.319 335.2 728.02 346.246C743.735 355.578 756.032 368.529 767.504 381.594C777.516 391.852 786.427 403.07 794.101 415.075V415.075Z" fill="#20201E"/>
<path d="M919.743 662.548C918.569 669.722 916.179 676.659 912.671 683.078C912.197 683.729 911.867 684.468 911.701 685.248C911.535 686.028 911.537 686.833 911.707 687.612C911.876 688.392 912.21 689.129 912.687 689.777C913.164 690.426 913.774 690.972 914.478 691.382C931.647 705.818 946.222 723.606 961.27 740.899C960.68 741.737 960.052 741.699 959.384 740.899C943.04 724.368 924.654 710.427 909.214 691.877C906.149 697.057 903.242 702.466 899.903 707.494C892.517 718.655 882.891 725.549 870.201 725.625C867.215 725.625 863.287 725.854 861.401 723.911C852.522 714.579 849.615 722.616 845.057 729.282C835.157 743.756 820.974 749.47 805.416 752.136C778.701 756.554 751.985 760.935 724.562 755.069C732.42 754.726 740.277 755.069 748.135 753.888C756.294 752.852 764.368 751.261 772.297 749.127C784.712 745.775 797.126 742.156 809.345 738.043C825.413 732.596 835.55 720.178 839.596 701.362C842.464 688.03 844.939 674.699 848.082 661.291C849.143 656.872 846.786 656.758 844.664 655.425C838.378 651.387 831.896 647.578 825.885 642.969C819.049 637.713 815.042 627.048 818.499 623.924C824.431 618.477 829.971 623.734 834.882 627.467C838.967 630.576 842.52 634.291 845.411 638.475C850.793 646.093 855.115 644.721 859.476 638.094C862.894 632.913 866.351 627.809 870.515 621.639C868.518 633.027 864.175 643.908 857.747 653.635C855.979 656.072 854.093 657.444 855.586 661.557C858.32 670.351 859.385 679.553 858.729 688.716C858.729 702.733 867.765 711.151 879.434 707.761C887.327 704.913 894.046 699.643 898.567 692.753C905.874 683.04 912.75 672.946 919.821 663.005L919.743 662.548Z" fill="#20201E"/>
<path d="M823.211 620.115C833.19 617.449 854.837 608.422 866.427 615.773C868.782 617.229 870.49 619.486 871.217 622.1C871.944 624.715 871.637 627.499 870.356 629.905C869.02 632.8 866.427 634.742 864.777 637.523C863.53 640.154 862.1 642.699 860.495 645.141C857.155 649.559 851.734 649.559 823.211 620.115Z" fill="#AF839C"/>
<path d="M885.877 647.272C923.004 636.036 960.916 634.36 999.103 635.464C960.916 635.54 923.672 644.568 885.877 647.272Z" fill="#272727"/>
<path d="M670.072 749.278C695.727 731.946 719.103 710.921 748.647 699.76C723.818 718.691 696.316 732.784 670.072 749.278Z" fill="#2B2B2A"/>
<path d="M677.105 692.982C697.574 689.173 717.885 684.145 738.826 683.688C743.595 683.339 748.383 684.07 752.812 685.821C728.689 689.897 704.135 690.43 680.051 694.658C678.519 695.039 676.673 695.877 677.105 692.982Z" fill="#282827"/>
<path d="M963.077 692.677C947.362 687.801 931.647 682.85 915.932 678.05C913.024 677.174 910.117 675.422 906.896 677.022C902.417 671.346 894.166 672.07 887.959 664.985C915.46 670.775 938.601 682.316 962.841 690.925C963.352 691.268 963.548 691.572 963.391 691.953C963.234 692.334 963.234 692.677 963.077 692.677Z" fill="#242524"/>
<path d="M753.916 660.835C738.476 652.493 725.078 640.99 709.324 633.181C725.943 639.542 742.797 645.523 753.916 660.835Z" fill="#2D2D2D"/>
<path d="M438.002 360.988C435.999 368.034 434.27 375.119 432.031 382.166C430.706 387.508 428.185 392.502 424.645 396.793C435.213 386.242 441.42 370.434 445.467 358.131C450.81 341.714 458.432 314.365 449.396 299.662C445.231 292.73 444.642 337.296 438.002 360.988Z" fill="#20201E"/>
<path d="M449.906 226.186C449.16 220.396 448.531 214.53 447.667 208.817C447.308 204.886 446.327 201.032 444.76 197.39C449.003 204.398 451.399 216.93 452.971 226.947C455.014 240.203 457.882 262.676 454.071 277.608C452.264 284.769 452.421 245.612 449.906 226.186Z" fill="#20201E"/>
<path d="M547.537 778.151C566.552 769.238 584.232 760.858 604.111 756.972C610.436 755.754 617.076 753.659 623.283 752.973C629.817 752.375 636.394 752.375 642.927 752.973C648.609 753.493 654.242 754.422 659.781 755.754C663.736 756.168 667.618 757.077 671.332 758.458C674.789 760.172 682.922 763.41 680.447 767.752C676.539 768.195 672.578 767.845 668.818 766.724L654.163 763.867C642.023 761.581 631.73 758.153 617.037 759.639C604.063 761.371 591.28 764.253 578.849 768.247C568.236 771.001 557.783 774.307 547.537 778.151V778.151Z" fill="#20201E"/>
<path d="M361.467 607.127C355.142 627.657 349.091 646.702 353.295 667.88C353.966 674.772 355.148 681.608 356.831 688.335C359.7 695.641 363.558 702.545 368.303 708.865C373.05 715.127 378.305 721.012 384.018 726.463C387.588 730.953 391.718 734.996 396.315 738.5C401.815 742.042 413.091 750.46 420.241 747.603C419.652 743.451 414.269 738.766 411.165 735.49C406.333 730.348 401.501 725.32 396.708 720.254C384.922 707.608 371.878 696.943 366.103 681.364C361.832 668.203 359.88 654.437 360.328 640.646C359.483 629.465 359.865 618.229 361.467 607.127V607.127Z" fill="#20201E"/>
<path d="M364.098 638.78C363.469 662.523 362.657 686.177 361.662 709.743C361.269 714.992 361.269 720.263 361.662 725.512C366.495 722.693 368.066 704.372 370.541 698.849C374.077 690.812 380.756 686.089 384.449 677.899C386.335 685.517 382.524 696.64 383.27 705.134C383.81 709.084 384.584 713.001 385.588 716.866C387.149 724.768 389.397 732.528 392.306 740.063C396.235 724.827 398.985 717.894 408.021 708.105C412.382 703.229 417.372 699.192 364.098 638.78Z" fill="#F4F9FF"/>
<path d="M581.125 291.244C590.909 295.148 601.429 297.016 612.005 296.729C617.23 296.501 622.338 295.168 627.524 294.863C633.613 294.52 639.899 292.844 645.831 292.654C645.046 298.063 635.46 303.738 632.709 308.499C631.553 310.203 630.889 312.176 630.784 314.213C634.713 312.918 638.445 310.632 642.571 309.642C646.957 308.726 651.446 308.354 655.928 308.538C659.892 308.327 663.833 307.817 667.715 307.014C670.622 306.557 673.49 307.242 676.044 305.605C678.676 309.033 666.693 322.745 665.436 326.021C664.091 329.139 663.256 332.442 662.961 335.81C671.054 333.068 685.04 332.001 693.291 335.467C692.23 341.029 687.162 345.523 686.101 351.389C689.205 352.189 686.73 356.303 687.398 359.007C690.541 358.702 693.723 356.76 696.945 356.112C696.945 356.112 700.873 355.579 701.07 355.617C703.427 357.484 700.677 366.549 700.402 369.482C699.655 376.719 704.331 373.291 709.045 372.491C715.213 371.539 714.585 374.891 714.663 379.881C719.849 380.185 720.36 385.632 721.499 389.708C723.071 395.117 727.432 395.269 731.95 397.326C735.25 398.812 739.807 398.202 742.518 400.259C745.229 402.316 743.775 403.611 747.232 403.42C750.061 403.23 752.183 400.145 755.286 400.64C755.64 404.068 752.929 406.506 752.929 409.401C755.208 408.524 758.508 406.125 760.787 406.772C761.101 414.162 754.894 419.494 754.304 426.465C755.326 426.16 755.994 426.465 757.133 425.856C759.137 430.426 752.969 435.911 752.929 440.52C753.587 441.685 753.9 443.003 753.833 444.329C752.918 448.699 751.426 452.937 749.393 456.937C747.508 461.394 744.954 467.564 750.65 468.707C757.526 470.078 770.962 461.089 775.52 470.155C776.031 475.473 775.153 480.831 772.966 485.733C771.065 491.334 769.478 497.031 768.212 502.798C766.916 510.797 768.762 506.607 771.748 510.797C774.734 514.987 769.862 521.234 771.551 525.538C774.694 526.185 777.68 524.662 780.863 524.7C783.22 529.347 780.155 532.966 787.581 532.318C794.063 531.67 795.91 528.509 796.97 535.67C797.678 540.698 798.581 538.831 802.628 540.85C809.267 544.202 803.414 551.592 806.557 556.848C809.56 556.559 812.592 556.857 815.475 557.724C816.496 561.533 814.257 564.733 813.432 568.237C812.889 571.006 812.522 573.805 812.332 576.617" fill="#F4F9FF"/>
<path d="M742.047 375.194C749.904 377.251 770.058 384.374 778.82 383.193C781.468 382.521 784.158 382.012 786.873 381.669C790.291 381.669 794.181 382.05 797.717 382.126C796.735 388.449 790.331 392.296 784.202 394.315C780.587 395.496 773.044 394.315 771.041 397.172C779.448 396.981 789.349 399.648 797.953 399.953C802.785 399.953 810.25 398.81 815.593 401.171C813.982 405.78 806.085 407.38 802.706 410.846C800.428 413.17 798.778 416.445 794.849 417.169C790.92 417.893 786.166 417.169 782.316 417.55C773.109 419.196 763.617 418.433 754.815 415.341C749.454 413.23 743.625 412.482 737.882 413.17C736.31 411.951 736.468 411.265 742.047 375.194Z" fill="#E9EAEC"/>
<path d="M289.652 178.382C291.535 190.207 294.159 201.91 297.51 213.425L303.796 232.775C307.1 242.988 311.036 252.998 315.582 262.752C322.654 277.988 329.136 294.71 336.994 308.232C340.922 315.05 345.166 320.992 349.173 328.039C354.973 339.081 361.66 349.665 369.17 359.692C372.15 362.865 375.381 365.807 378.835 368.491C381.591 370.293 383.987 372.564 385.907 375.195" stroke="#E2E2E2" stroke-miterlimit="10"/>
<path d="M608.642 491.715C648.243 439.798 715.149 475.031 714.442 491.524C710.121 491.524 632.489 541.042 606.324 496.324C605.106 494.267 597.799 473.051 608.642 491.715Z" fill="#C83D43"/>
<path d="M800.952 443.354C797.574 444.535 794.156 444.077 793.095 452.343C792.192 459.504 792.427 466.665 792.074 472.836C791.641 480.454 792.938 478.968 795.766 481.254C797.259 482.472 809.045 486.015 811.481 485.063C813.917 484.11 801.581 447.125 800.952 443.354Z" fill="#E42D38"/>
<path d="M353.404 898.788C427.383 736.828 408.406 765.739 532.633 833.197C560.881 848.433 689.783 808.856 701.137 793.735C743.881 735.99 748.675 928.613 748.675 928.613C748.675 928.613 685.815 989.824 659.296 1000.98C617.455 1018.39 520.572 1016.22 477.906 1000.98C439.954 987.462 353.404 898.788 353.404 898.788Z" fill="#B0B7BE" stroke="black" stroke-miterlimit="10"/>
<path d="M160.332 1635.63C71.6431 1635.62 -8.32119 1562.83 7.86796 1475.63V1475.63C14.3504 1441.35 22.0511 1408.21 27.9049 1373.32C33.0516 1342.84 37.0192 1311.08 42.1658 1280.41C45.8589 1258.51 50.6522 1236.72 55.1702 1215.66C57.9989 1202.44 61.6136 1192.5 65.2674 1180.43C70.2176 1164.09 74.382 1146.15 78.9393 1129.42C106.441 1027.08 294.078 811.865 387.739 920.308C484.033 1031.8 704.75 1015.04 742.191 923.889C746.944 912.462 946.799 977.215 975.558 1032.18C1058.62 1191.17 1090.73 1338.47 1101.81 1447.75C1112.76 1555.8 1021.91 1635.75 913.306 1635.73L160.332 1635.63Z" fill="#B0B7BE" stroke="black" stroke-miterlimit="10"/>
<path d="M115.481 1100.67C107.113 1095.41 132.532 1110.3 139.054 1117.73C310.622 1314.47 266.973 1496.01 263.476 1507.7C262.455 1511.2 250.197 1541.03 250.865 1551.5C250.934 1555.34 251.368 1559.17 252.162 1562.93C253.846 1566.45 255.289 1570.08 256.483 1573.78C256.718 1578.32 255.968 1582.85 254.283 1587.08C252.908 1591.76 251.297 1596.45 250.354 1601.21C249.417 1604.42 248.824 1607.71 248.586 1611.04C248.764 1613.01 248.764 1615 248.586 1616.98C248.861 1615.99 249.176 1615.04 249.451 1614.05" stroke="#9AA1A8" stroke-miterlimit="10"/>
<path d="M279.467 1350.81C280.882 1348.52 282.021 1345.51 283.396 1343.19C286.698 1337.2 289.106 1330.79 290.547 1324.14C294.476 1308.37 293.925 1291.42 298.05 1275.54C299.386 1270.36 306.458 1250.25 311.919 1253.71C315.848 1256.15 316.319 1269.98 316.633 1274.05C317.145 1284.6 316.83 1295.17 315.69 1305.67C314.473 1320.91 312.901 1336.14 310.386 1351.19C306.693 1373.32 301.704 1394.38 296.243 1415.94C293.415 1427.1 291.136 1438.38 288.071 1449.46C285.282 1457.75 283.012 1466.2 281.275 1474.75C279.959 1483.36 280.198 1492.12 281.981 1500.65C282.712 1504.04 284.157 1507.24 286.225 1510.06C289.328 1512.77 294.946 1512.23 305.633 1505.3C312.469 1500.84 319.895 1497.68 326.888 1493.53C339.853 1485.91 367 1458.98 379.139 1474.48C381.693 1477.68 379.69 1482.6 378.472 1485.91C371.086 1506.33 348.889 1514.1 338.438 1532.27C331.798 1543.7 282.099 1533.22 280.214 1545.71C261.788 1666.12 252.281 1633.13 192.328 1635.95C184.078 1636.33 232.754 1592.53 236.761 1585.71C244.894 1571.92 249.962 1549.87 239.669 1534.93C236.924 1530.33 233.713 1526.01 230.083 1522.02C222.422 1514.67 207.925 1457.08 199.556 1446.15C100.473 1316.64 163.962 1352.1 214.84 1408.06C225.054 1419.48 229.651 1432.85 235.033 1447.17C238.962 1457.8 245.248 1471.51 256.013 1474.41C261.12 1462.03 258.566 1451.55 252.673 1439.67C243.637 1421.27 237.626 1401.35 229.101 1382.54C223.681 1369.83 221.007 1356.18 221.243 1342.43C220.567 1337.02 221.022 1331.54 222.579 1326.31C226.508 1326.5 228.707 1335.49 229.768 1339.11C232.754 1349.4 233.344 1358.88 238.805 1368.21C240.847 1371.72 251.377 1389.7 256.916 1387.6C259.549 1386.61 259.274 1381.47 259.038 1378.84C258.802 1376.21 258.016 1373.47 257.584 1370.84C257.158 1366.94 256.949 1363.03 256.956 1359.11C256.288 1345.63 248.509 1331.8 243.715 1319.84C241.111 1313.52 238.971 1307.03 237.312 1300.41C234.801 1292.54 231.77 1284.83 228.236 1277.33C224.308 1266.93 222.343 1255.12 217.275 1245.41C215.324 1240.86 213.107 1236.42 210.636 1232.12C208.239 1228.65 205.332 1226.06 202.778 1222.82C196.45 1214.88 190.625 1206.58 185.335 1197.95C181.995 1192.58 162.94 1158.6 157.401 1151.25C153.119 1145.61 121.61 1111.29 118.113 1104.97C114.617 1098.65 143.061 1115.86 147.5 1119.48C155.751 1126.11 171.938 1153.54 179.245 1161.61C183.136 1165.76 186.14 1170.61 188.085 1175.9C190.99 1181.94 194.518 1187.68 198.613 1193.04C196.688 1184.58 192.76 1177 191.071 1168.32C182.82 1125.12 170.523 1117.05 173.352 1107.37C182.977 1075.07 199.046 1145.77 203.093 1171.4C204.429 1179.82 205.607 1201.49 213.386 1207.81C218.572 1199.93 218.297 1193.19 217.314 1183.28C216.011 1173.07 216.84 1162.71 219.751 1152.81C226.862 1151.71 226.076 1188.92 227.176 1196.01C228.407 1206.17 230.35 1216.23 232.99 1226.14C237.233 1239.92 244.187 1253.37 246.112 1267.81C247.947 1278.25 250.574 1288.55 253.97 1298.62C257.663 1311.12 260.57 1323.88 263.399 1336.71C265.324 1345.28 275.617 1357.05 279.467 1350.81Z" fill="#9AA1A8"/>
<path d="M282.883 920.192C271.143 924.271 259.809 929.37 249.018 935.428C251.728 943.046 255.578 934.248 266.657 935.428C277.736 936.609 271.45 941.256 281.036 938.018C296.987 932.609 311.916 935.847 326.728 942.741C340.635 949.217 348.846 963.196 357.764 974.928C363.5 982.546 369.079 990.164 374.815 997.591C380.551 1005.02 383.694 1010.66 388.29 1018.05C392.494 1024.83 401.059 1040.48 411.352 1040.52C423.138 1040.52 417.206 1019.68 415.281 1013.86C409.121 994.902 397.208 978.19 381.1 965.901C374.814 960.949 368.489 955.349 362.557 950.169C354.169 943.265 344.328 938.222 333.721 935.39C315.57 929.524 281.547 906.708 282.883 920.192Z" fill="#9AA1A8"/>
<path d="M691.314 807.373C665.621 850.186 568.228 859.176 576.479 865.727C613.173 895.019 720.113 875.631 724.552 874.183C743.292 868.127 567.993 883.401 662.636 859.252C726.556 842.759 700.9 791.223 691.314 807.373Z" fill="#9AA1A8"/>
<path d="M742.858 913.376C709.071 878.409 821.865 965.559 586.848 987.918C575.062 989.06 547.561 990.851 546.303 997.936C541.275 1025.25 704.278 998.507 732.722 971.996C744.547 960.874 755.941 927.012 742.858 913.376Z" fill="#9AA1A8"/>
<path d="M915.413 1411.52C927.906 1411.26 941.028 1406.61 950.771 1415.67C946.842 1425.65 945.311 1435.98 938.553 1444.51C933.996 1450.34 927.316 1454.6 923.113 1460.51C920.52 1464.28 914.312 1478.03 915.413 1411.52Z" fill="#9AA1A8"/>
<path d="M214.088 941.143C240.528 974.891 269.366 1007.99 291.446 1044.6C308.85 1073.39 325.508 1118.26 339.376 1148.77C356.034 1185.45 392.807 1296.64 396.343 1346.84C403.101 1442.9 391.275 1540.38 378.349 1635.72" stroke="#9AA1A8" stroke-miterlimit="10"/>
<path d="M340.6 953.484C367.04 987.232 395.877 1020.33 417.956 1056.94C435.361 1085.77 449.386 1118.26 463.216 1148.77C479.873 1185.49 512.718 1296.6 516.254 1346.84C523.011 1442.91 511.185 1540.38 498.26 1635.72" stroke="#9AA1A8" stroke-miterlimit="10"/>
<path d="M546.42 997.82C551.331 1008.68 560.132 1069.05 586.062 1126.22C602.038 1162.87 612.197 1201.66 616.195 1241.25C622.049 1291.15 627.746 1340.9 631.243 1390.99C638 1487.05 630.142 1540.15 617.217 1635.49" stroke="#9AA1A8" stroke-miterlimit="10"/>
<path d="M654.582 988.26C747.497 1106.84 762.818 1172.08 770.951 1241.37C776.805 1291.27 782.502 1341.01 786.037 1391.1C792.795 1487.17 790.202 1540.26 777.276 1635.6" stroke="#9AA1A8" stroke-miterlimit="10"/>
<path d="M854.631 1034.54C872.035 1063.33 886.06 1095.83 899.889 1126.34C915.852 1162.99 925.998 1201.77 929.983 1241.37C935.876 1291.27 941.533 1341.01 945.069 1391.1C951.826 1487.17 943.969 1540.26 931.043 1635.6" stroke="#9AA1A8" stroke-miterlimit="10"/>
<path d="M544.711 486.992L543.258 459.302C543.258 456.902 553.276 455.493 553.276 455.493C553.276 455.493 555.948 492.135 555.673 492.402L545.262 493.087C544.69 491.106 544.503 489.039 544.711 486.992V486.992Z" fill="#231F20" stroke="#231F20" stroke-miterlimit="10"/>
<path opacity="0.74" d="M663.21 594.533C710.377 584.354 736.856 524.897 722.354 461.734C707.851 398.571 657.858 355.62 610.692 365.8C563.525 375.98 537.046 435.436 551.548 498.599C566.051 561.762 616.044 604.713 663.21 594.533Z" fill="#6C5744" stroke="#231F20" stroke-width="3" stroke-miterlimit="10"/>
<path opacity="0.73" d="M834.305 534.577C863.498 528.711 877.556 479.019 865.705 423.588C853.855 368.156 820.583 327.975 791.391 333.841C762.198 339.708 748.14 389.4 759.991 444.832C771.841 500.263 805.113 540.443 834.305 534.577Z" fill="#59432C" stroke="#231F20" stroke-width="3" stroke-miterlimit="10"/>
<path d="M549.427 474.154C540.548 473.43 386.776 495.484 379.39 497.884C349.296 507.635 367.604 577.454 363.439 555.819C363.985 555.71 364.504 555.503 364.971 555.21" stroke="#231F20" stroke-width="3" stroke-miterlimit="10"/>
<path d="M719.383 450.654C722.919 448.33 724.923 445.93 741.266 442.541C746.099 441.55 762.207 444.331 762.207 444.331" stroke="#231F20" stroke-width="4" stroke-miterlimit="10"/>
<path d="M644.43 508.053C638.354 505.259 632.355 502.251 626.436 499.025C624.047 497.621 621.763 496.056 619.6 494.34C612.843 489.579 605.496 485.998 598.856 480.97C595.602 478.246 592.044 475.882 588.249 473.923C587.502 473.51 586.67 473.263 585.813 473.2C582.945 473.2 584.32 475.675 585.066 477.656C586.321 480.605 588.288 483.218 590.802 485.274C592.806 487.103 595.085 488.436 597.089 490.264C598.569 491.733 600.158 493.095 601.842 494.34L611.231 500.892C614.497 503.273 617.953 505.4 621.565 507.253C626.161 509.424 630.522 512.243 635.118 514.376C638.828 516.479 642.785 518.141 646.905 519.327C651.477 520.502 656.142 521.305 660.852 521.728C663.898 522.016 666.973 521.639 669.849 520.623C671.027 520.09 672.442 519.404 671.617 518.033C671.062 517.344 670.366 516.774 669.574 516.357C667.92 515.769 666.209 515.347 664.466 515.1C662.187 514.528 659.987 513.805 657.748 513.081C655.382 512.588 653.047 511.965 650.755 511.214C649.223 510.567 647.848 509.501 646.276 508.815C644.705 508.13 642.584 507.672 644.43 508.053Z" fill="#8C7868" stroke="#231F20" stroke-miterlimit="10"/>
<path d="M515.442 475.638C508.999 476.895 502.517 478.115 495.995 479.219C493.323 479.638 490.652 479.98 488.137 480.285C480.28 481.351 472.422 482.799 464.329 483.752C460.165 484.247 456.118 484.666 451.993 485.504C451.193 485.635 450.405 485.825 449.636 486.075C447.2 486.951 449.635 487.065 451.207 487.294C454.079 487.596 456.978 487.596 459.851 487.294C462.404 487.065 464.997 486.646 467.708 486.456C470.419 486.265 471.637 486.152 473.68 485.885L484.758 484.399C488.687 483.866 492.616 483.371 496.545 482.609C501.416 481.695 506.445 480.971 511.317 480.019C515.245 479.219 519.882 478.495 523.693 477.428C527.504 476.362 532.572 475.028 536.422 473.619C538.836 472.872 541.156 471.864 543.336 470.611C544.044 470.154 544.868 469.544 543.532 469.506C542.676 469.541 541.823 469.63 540.979 469.773C539.329 470.078 537.718 470.648 536.147 471.067L529.547 472.705C527.229 473.238 525.263 473.963 522.828 474.458C521.217 474.763 519.567 474.953 517.956 475.296C516.345 475.639 513.871 476.133 515.442 475.638Z" fill="#D9DBE0" stroke="#231F20" stroke-miterlimit="10"/>
<path d="M821.884 437.625C817.602 435.568 813.359 433.359 809.195 431.035C807.493 430.009 805.853 428.891 804.284 427.684C799.49 424.37 794.304 421.704 789.551 418.237C787.192 416.334 784.653 414.651 781.968 413.209C781.455 412.909 780.876 412.726 780.278 412.675C778.314 412.447 779.375 414.124 779.965 415.419C780.984 417.439 782.445 419.22 784.246 420.637C785.661 421.894 787.311 422.846 788.726 424.103C789.824 425.103 790.978 426.045 792.183 426.922C794.422 428.446 796.622 430.007 798.901 431.531C801.225 433.205 803.667 434.719 806.209 436.063C809.43 437.663 812.534 439.682 815.795 441.243C818.422 442.799 821.215 444.076 824.124 445.052C827.276 446.012 830.492 446.763 833.749 447.3C835.787 447.628 837.873 447.55 839.879 447.071C840.664 446.767 841.568 446.424 840.979 445.51C840.557 445.034 840.051 444.634 839.485 444.329C838.337 443.894 837.155 443.55 835.95 443.3C834.378 442.805 832.845 442.272 831.274 441.663C829.702 441.053 828.052 440.901 826.402 440.139C825.341 439.644 824.36 438.92 823.26 438.425C822.16 437.929 820.666 437.282 821.884 437.625Z" fill="#8C7868" stroke="#231F20" stroke-miterlimit="10"/>
<path d="M818.428 408.295C815.748 407.273 813.125 406.117 810.57 404.829C809.55 404.247 808.588 403.571 807.702 402.81C804.912 400.715 801.691 399.382 798.98 397.134C797.685 395.896 796.185 394.879 794.541 394.125C794.203 393.953 793.819 393.886 793.441 393.934C792.066 394.163 792.537 395.496 792.695 396.562C793.007 398.004 793.744 399.327 794.816 400.372C795.602 401.21 796.544 401.781 797.369 402.619C797.95 403.309 798.595 403.947 799.295 404.524C800.591 405.438 801.887 406.429 803.223 407.343C804.554 408.407 806.02 409.303 807.585 410.009C809.588 410.809 811.513 412.028 813.438 412.79C815.058 413.664 816.828 414.246 818.663 414.505C820.792 414.714 822.938 414.714 825.067 414.505C826.623 414.33 828.115 413.808 829.427 412.98C830.056 412.561 830.763 412.066 830.488 411.343C830.297 411.015 830.01 410.75 829.663 410.581C828.908 410.388 828.125 410.311 827.345 410.352C826.327 410.233 825.317 410.055 824.321 409.818C823.25 409.788 822.185 409.661 821.138 409.438C820.47 409.209 819.921 408.714 819.253 408.486C818.585 408.257 817.563 408.257 818.428 408.295Z" fill="#8C7868" stroke="#231F20" stroke-miterlimit="10"/>
<path d="M648.273 464.48C643.794 462.385 639.394 460.137 635.033 457.738C633.274 456.699 631.593 455.541 630.004 454.272C625.014 450.806 619.593 448.139 614.721 444.482C612.297 442.482 609.663 440.734 606.864 439.265C606.323 438.962 605.719 438.779 605.096 438.731C603.014 438.731 604.074 440.407 604.624 441.816C605.616 443.972 607.093 445.885 608.946 447.415C610.439 448.749 612.128 449.739 613.582 451.034C614.685 452.118 615.866 453.123 617.117 454.043C619.475 455.605 621.753 457.243 624.071 458.842C626.484 460.572 629.018 462.137 631.655 463.527C635.033 465.165 638.255 467.336 641.634 468.859C644.385 470.441 647.31 471.719 650.355 472.668C653.676 473.584 657.064 474.246 660.491 474.649C662.681 474.943 664.913 474.748 667.013 474.078C667.878 473.735 668.859 473.278 668.23 472.326C667.831 471.809 667.322 471.38 666.738 471.069C665.466 470.612 664.15 470.28 662.809 470.079C661.159 469.622 659.548 469.089 657.898 468.517C656.248 467.946 654.48 467.831 652.791 467.069C651.101 466.308 650.669 465.774 649.53 465.279C648.39 464.784 646.898 464.175 648.273 464.48Z" fill="#8D7969" stroke="#231F20" stroke-miterlimit="10"/>
<path d="M544.711 486.992L543.258 459.302C543.258 456.902 553.276 455.493 553.276 455.493C553.276 455.493 555.948 492.135 555.673 492.402L545.262 493.087C544.69 491.106 544.503 489.039 544.711 486.992V486.992Z" fill="#231F20" stroke="#231F20" stroke-miterlimit="10"/>
<path opacity="0.74" d="M663.21 594.533C710.377 584.354 736.856 524.897 722.354 461.734C707.851 398.571 657.858 355.62 610.692 365.8C563.525 375.98 537.046 435.436 551.548 498.599C566.051 561.762 616.044 604.713 663.21 594.533Z" fill="#6C5744" stroke="#231F20" stroke-width="5" stroke-miterlimit="10"/>
<path opacity="0.73" d="M834.305 534.577C863.498 528.711 877.556 479.019 865.705 423.588C853.855 368.156 820.583 327.975 791.391 333.841C762.198 339.708 748.14 389.4 759.991 444.832C771.841 500.263 805.113 540.443 834.305 534.577Z" fill="#59432C" stroke="#231F20" stroke-width="5" stroke-miterlimit="10"/>
<path d="M549.427 474.154C540.548 473.43 386.776 495.484 379.39 497.884C349.296 507.635 367.604 577.454 363.439 555.819C363.985 555.71 364.504 555.503 364.971 555.21" stroke="#231F20" stroke-width="6" stroke-miterlimit="10"/>
<path d="M719.383 450.654C722.919 448.33 724.923 445.93 741.266 442.541C746.099 441.55 762.207 444.331 762.207 444.331" stroke="#231F20" stroke-width="4" stroke-miterlimit="10"/>
<path d="M644.43 508.053C638.354 505.259 632.355 502.251 626.436 499.025C624.047 497.621 621.763 496.056 619.6 494.34C612.843 489.579 605.496 485.998 598.856 480.97C595.602 478.246 592.044 475.882 588.249 473.923C587.502 473.51 586.67 473.263 585.813 473.2C582.945 473.2 584.32 475.675 585.066 477.656C586.321 480.605 588.288 483.218 590.802 485.274C592.806 487.103 595.085 488.436 597.089 490.264C598.569 491.733 600.158 493.095 601.842 494.34L611.231 500.892C614.497 503.273 617.953 505.4 621.565 507.253C626.161 509.424 630.522 512.243 635.118 514.376C638.828 516.479 642.785 518.141 646.905 519.327C651.477 520.502 656.142 521.305 660.852 521.728C663.898 522.016 666.973 521.639 669.849 520.623C671.027 520.09 672.442 519.404 671.617 518.033C671.062 517.344 670.366 516.774 669.574 516.357C667.92 515.769 666.209 515.347 664.466 515.1C662.187 514.528 659.987 513.805 657.748 513.081C655.382 512.588 653.047 511.965 650.755 511.214C649.223 510.567 647.848 509.501 646.276 508.815C644.705 508.13 642.584 507.672 644.43 508.053Z" fill="#8C7868"/>
<path d="M515.442 475.638C508.999 476.895 502.517 478.115 495.995 479.219C493.323 479.638 490.652 479.98 488.137 480.285C480.28 481.351 472.422 482.799 464.329 483.752C460.165 484.247 456.118 484.666 451.993 485.504C451.193 485.635 450.405 485.825 449.636 486.075C447.2 486.951 449.635 487.065 451.207 487.294C454.079 487.596 456.978 487.596 459.851 487.294C462.404 487.065 464.997 486.646 467.708 486.456C470.419 486.265 471.637 486.152 473.68 485.885L484.758 484.399C488.687 483.866 492.616 483.371 496.545 482.609C501.416 481.695 506.445 480.971 511.317 480.019C515.245 479.219 519.882 478.495 523.693 477.428C527.504 476.362 532.572 475.028 536.422 473.619C538.836 472.872 541.156 471.864 543.336 470.611C544.044 470.154 544.868 469.544 543.532 469.506C542.676 469.541 541.823 469.63 540.979 469.773C539.329 470.078 537.718 470.648 536.147 471.067L529.547 472.705C527.229 473.238 525.263 473.963 522.828 474.458C521.217 474.763 519.567 474.953 517.956 475.296C516.345 475.639 513.871 476.133 515.442 475.638Z" fill="#D9DBE0"/>
<path d="M821.884 437.625C817.602 435.568 813.359 433.359 809.195 431.035C807.493 430.009 805.853 428.891 804.284 427.684C799.49 424.37 794.304 421.704 789.551 418.237C787.192 416.334 784.653 414.651 781.968 413.209C781.455 412.909 780.876 412.726 780.278 412.675C778.314 412.447 779.375 414.124 779.965 415.419C780.984 417.439 782.445 419.22 784.246 420.637C785.661 421.894 787.311 422.846 788.726 424.103C789.824 425.103 790.978 426.045 792.183 426.922C794.422 428.446 796.622 430.007 798.901 431.531C801.225 433.205 803.667 434.719 806.209 436.063C809.43 437.663 812.534 439.682 815.795 441.243C818.422 442.799 821.215 444.076 824.124 445.052C827.276 446.012 830.492 446.763 833.749 447.3C835.787 447.628 837.873 447.55 839.879 447.071C840.664 446.767 841.568 446.424 840.979 445.51C840.557 445.034 840.051 444.634 839.485 444.329C838.337 443.894 837.155 443.55 835.95 443.3C834.378 442.805 832.845 442.272 831.274 441.663C829.702 441.053 828.052 440.901 826.402 440.139C825.341 439.644 824.36 438.92 823.26 438.425C822.16 437.929 820.666 437.282 821.884 437.625Z" fill="#8C7868"/>
<path d="M818.428 408.295C815.748 407.273 813.125 406.117 810.57 404.829C809.55 404.247 808.588 403.571 807.702 402.81C804.912 400.715 801.691 399.382 798.98 397.134C797.685 395.896 796.185 394.879 794.541 394.125C794.203 393.953 793.819 393.886 793.441 393.934C792.066 394.163 792.537 395.496 792.695 396.562C793.007 398.004 793.744 399.327 794.816 400.372C795.602 401.21 796.544 401.781 797.369 402.619C797.95 403.309 798.595 403.947 799.295 404.524C800.591 405.438 801.887 406.429 803.223 407.343C804.554 408.407 806.02 409.303 807.585 410.009C809.588 410.809 811.513 412.028 813.438 412.79C815.058 413.664 816.828 414.246 818.663 414.505C820.792 414.714 822.938 414.714 825.067 414.505C826.623 414.33 828.115 413.808 829.427 412.98C830.056 412.561 830.763 412.066 830.488 411.343C830.297 411.015 830.01 410.75 829.663 410.581C828.908 410.388 828.125 410.311 827.345 410.352C826.327 410.233 825.317 410.055 824.321 409.818C823.25 409.788 822.185 409.661 821.138 409.438C820.47 409.209 819.921 408.714 819.253 408.486C818.585 408.257 817.563 408.257 818.428 408.295Z" fill="#8C7868"/>
<path d="M648.273 464.48C643.794 462.385 639.394 460.137 635.033 457.738C633.274 456.699 631.593 455.541 630.004 454.272C625.014 450.806 619.593 448.139 614.721 444.482C612.297 442.482 609.663 440.734 606.864 439.265C606.323 438.962 605.719 438.779 605.096 438.731C603.014 438.731 604.074 440.407 604.624 441.816C605.616 443.972 607.093 445.885 608.946 447.415C610.439 448.749 612.128 449.739 613.582 451.034C614.685 452.118 615.866 453.123 617.117 454.043C619.475 455.605 621.753 457.243 624.071 458.842C626.484 460.572 629.018 462.137 631.655 463.527C635.033 465.165 638.255 467.336 641.634 468.859C644.385 470.441 647.31 471.719 650.355 472.668C653.676 473.584 657.064 474.246 660.491 474.649C662.681 474.943 664.913 474.748 667.013 474.078C667.878 473.735 668.859 473.278 668.23 472.326C667.831 471.809 667.322 471.38 666.738 471.069C665.466 470.612 664.15 470.28 662.809 470.079C661.159 469.622 659.548 469.089 657.898 468.517C656.248 467.946 654.48 467.831 652.791 467.069C651.101 466.308 650.669 465.774 649.53 465.279C648.39 464.784 646.898 464.175 648.273 464.48Z" fill="#8D7969"/>
<path d="M791.738 1246.48C802.833 1240.94 805.836 1225.16 798.445 1211.23C791.054 1197.29 776.067 1190.47 764.971 1196C753.876 1201.53 750.873 1217.32 758.265 1231.25C765.656 1245.19 780.642 1252.01 791.738 1246.48Z" stroke="#F4BC60" stroke-width="3" stroke-miterlimit="10"/>
<path d="M808.906 1229.07C811.101 1218.32 798.681 1206.87 781.164 1203.51C763.646 1200.15 747.666 1206.14 745.47 1216.89C743.274 1227.64 755.695 1239.08 773.212 1242.44C790.729 1245.81 806.71 1239.82 808.906 1229.07Z" stroke="#F4BC60" stroke-width="3" stroke-miterlimit="10"/>
<path d="M790.165 1238.4C804.193 1228.96 810.107 1213.69 803.376 1204.28C796.644 1194.88 779.816 1194.92 765.789 1204.36C751.762 1213.8 745.847 1229.07 752.579 1238.48C759.31 1247.88 776.138 1247.84 790.165 1238.4Z" stroke="#F4BC60" stroke-width="3" stroke-miterlimit="10"/>
<path d="M308.088 896.288C318.303 909.43 328.517 922.457 337.593 936.283C341.064 942.095 345.246 947.479 350.047 952.319C387.802 986.867 464.295 1068.08 709.763 1195.79C720.449 1201.39 730.822 1207.49 741.429 1213.24C752.037 1218.99 764.059 1226 776.356 1225.96C843.813 1225.73 802.05 979.934 793.485 932.283" stroke="#F4BC60" stroke-width="3" stroke-miterlimit="10"/>
<path d="M279.017 314.947C294.024 336.315 215.253 348.543 233.954 293.997" stroke="#ECB62B" stroke-width="3" stroke-miterlimit="10"/>
<path d="M757.439 470.01C768.784 480.941 780.738 494.026 792.812 500.98C799.789 504.633 806.739 507.757 813.611 510.33C819.224 512.727 823.59 513.526 829.439 517.16C833.215 519.277 836.987 521.643 840.735 524.244C854.649 534.642 852.599 550.206 850.571 559.702C848.69 568.433 849.821 578.531 845.356 584.916C840.89 591.302 830.593 596.338 820.224 590.932L819.95 588.016" fill="#F4F9FF"/>
<mask id="path-67-inside-3_1739_3" fill="white">
<path d="M763.618 477.046C775.891 486.946 789.006 498.916 801.519 504.858C808.706 507.933 815.804 510.491 822.763 512.513C828.481 514.454 832.804 514.919 838.897 518.058C842.802 519.859 846.734 521.905 850.669 524.185C874.04 543.195 865.21 548.803 864.36 558.274C863.564 566.984 865.845 576.815 862.269 583.412C858.694 590.008 849.311 595.707 838.632 591.16L838.025 588.317"/>
</mask>
<path d="M763.618 477.046C775.891 486.946 789.006 498.916 801.519 504.858C808.706 507.933 815.804 510.491 822.763 512.513C828.481 514.454 832.804 514.919 838.897 518.058C842.802 519.859 846.734 521.905 850.669 524.185C874.04 543.195 865.21 548.803 864.36 558.274C863.564 566.984 865.845 576.815 862.269 583.412C858.694 590.008 849.311 595.707 838.632 591.16L838.025 588.317" fill="#F4F9FF"/>
<path d="M801.519 504.858L801.078 505.743L801.097 505.751L801.115 505.759L801.519 504.858ZM822.763 512.513L823.091 511.583L823.07 511.576L823.047 511.569L822.763 512.513ZM838.897 518.058L838.426 518.927L838.446 518.938L838.467 518.947L838.897 518.058ZM850.669 524.185L851.318 523.431L851.255 523.38L851.185 523.339L850.669 524.185ZM864.36 558.274L865.371 558.368L865.371 558.367L864.36 558.274ZM838.632 591.16L837.639 591.354L837.746 591.856L838.23 592.062L838.632 591.16ZM762.973 477.802C769.065 482.716 775.471 488.231 781.847 493.203C788.241 498.189 794.718 502.722 801.078 505.743L801.959 503.973C795.807 501.052 789.47 496.629 783.11 491.67C776.732 486.696 770.445 481.276 764.263 476.29L762.973 477.802ZM801.115 505.759C808.338 508.849 815.476 511.422 822.478 513.457L823.047 511.569C816.132 509.56 809.074 507.017 801.922 503.957L801.115 505.759ZM822.434 513.443C825.315 514.421 827.911 515.047 830.402 515.779C832.919 516.519 835.457 517.398 838.426 518.927L839.367 517.188C836.244 515.579 833.574 514.656 830.977 513.893C828.354 513.123 825.928 512.546 823.091 511.583L822.434 513.443ZM838.467 518.947C842.341 520.734 846.245 522.766 850.154 525.03L851.185 523.339C847.223 521.045 843.263 518.984 839.327 517.168L838.467 518.947ZM850.021 524.938C861.663 534.408 865.031 540.349 865.59 544.916C865.871 547.209 865.458 549.247 864.885 551.369C864.321 553.455 863.572 555.705 863.35 558.182L865.371 558.367C865.574 556.108 866.247 554.106 866.848 551.882C867.439 549.694 867.932 547.366 867.605 544.697C866.949 539.339 863.047 532.972 851.318 523.431L850.021 524.938ZM863.35 558.181C862.946 562.594 863.319 567.366 863.343 571.634C863.366 575.992 863.033 579.882 861.371 582.948L863.168 583.876C865.082 580.345 865.396 576.021 865.372 571.637C865.347 567.163 864.978 562.665 865.371 558.368L863.35 558.181ZM861.371 582.948C857.986 589.193 849.123 594.554 839.034 590.258L838.23 592.062C849.499 596.86 859.401 590.824 863.168 583.876L861.371 582.948ZM839.625 590.966L839.018 588.123L837.031 588.511L837.639 591.354L839.625 590.966Z" fill="black" mask="url(#path-67-inside-3_1739_3)"/>
</svg>
