<svg width="39" height="38" viewBox="0 0 39 38" fill="none" xmlns="http://www.w3.org/2000/svg">
<path d="M19.6997 24.5629V33.0553L16.1192 29.8432L10.2555 24.5801C9.92498 24.2842 9.49469 24.1203 9.04843 24.1203L3.58195 24.122L3.56426 12.7685H7.75107L4.16912 9.23277H3.56426C1.59278 9.24054 -0.0011025 10.8212 5.72199e-07 12.7668V24.122C5.72199e-07 26.071 1.59935 27.656 3.56426 27.656H8.3568L16.1192 34.6222L18.9671 37.1769C19.6854 37.8205 20.3659 38 20.9014 38C21.3149 38 21.6446 37.893 21.8345 37.8093C22.2715 37.6186 23.285 36.9931 23.285 35.3012V28.102L19.6997 24.5629ZM35.5684 20.7476C35.5684 24.1937 34.6733 26.6793 33.6924 28.3808L36.1938 30.8501C37.6207 28.6785 39 25.3852 39 20.7459C39 11.3225 33.1 7.42962 32.8476 7.26914C32.6591 7.14844 32.4481 7.06599 32.2269 7.02659C32.0058 6.98718 31.7789 6.99162 31.5595 7.03963C31.3402 7.08788 31.1328 7.17862 30.9493 7.30659C30.7658 7.43455 30.6098 7.5972 30.4905 7.7851C29.9779 8.57801 30.1986 9.63062 30.9885 10.1578C31.1729 10.2811 35.5684 13.2828 35.5684 20.7476Z" fill="black"/>
<path d="M26.197 14.9026C26.3094 14.9596 28.9541 16.318 28.9541 20.1923C28.9541 21.1911 28.8054 22.0207 28.5857 22.717L31.2812 25.3452C31.959 24.0543 32.4836 22.3855 32.4836 20.194C32.4836 14.0396 27.9127 11.842 27.7194 11.7509V11.7526C27.5114 11.6568 27.2861 11.6019 27.0563 11.5912C26.8265 11.5806 26.5969 11.6142 26.3805 11.6903C26.1642 11.7664 25.9655 11.8835 25.7958 12.0347C25.6261 12.186 25.4887 12.3684 25.3915 12.5716C24.9733 13.4337 25.329 14.4632 26.197 14.9026ZM14.839 9.31472L15.9993 8.28607L19.6853 5.01947V14.0397L23.3749 17.6369V2.73768C23.3749 1.54943 22.8148 0.60057 21.8766 0.194561C21.4253 0.000746227 20.2344 -0.324571 18.928 0.834707L16.0009 3.42868L12.2301 6.77068L14.839 9.31472ZM35.1579 36C34.6866 36 34.2153 35.8246 33.8555 35.4738L2.53967 4.94229C1.82011 4.24075 1.82011 3.10423 2.53967 2.40269C3.25924 1.70115 4.42495 1.70115 5.14451 2.40269L36.4603 32.9342C37.1799 33.6357 37.1799 34.7723 36.4603 35.4738C36.1005 35.8246 35.6292 36 35.1579 36Z" fill="black"/>
</svg>
