<svg width="24" height="32" viewBox="0 0 24 32" fill="none" xmlns="http://www.w3.org/2000/svg">
<path fill-rule="evenodd" clip-rule="evenodd" d="M3.19726 31.519C4.02056 30.2368 7.12283 24.5335 7.12283 24.5335L5.303 23.4903C5.303 23.4903 2.26543 29.0838 1.45256 30.3478C1.13639 30.8395 1.27099 31.5019 1.75204 31.8251C2.23308 32.1483 2.88108 32.0107 3.19726 31.519ZM1.59134 19.021L12.7211 25.6257C14.2456 26.5302 16.1959 25.9948 17.0766 24.4279L18.5562 21.7932C19.1583 20.7223 19.1187 19.3943 18.4561 18.3629L18.0053 17.661C17.327 16.605 17.2874 15.2461 17.903 14.1507L19.2908 11.6803C19.9128 11.9225 20.5973 11.9609 21.2484 11.7817C22.0644 11.5566 22.7604 11.0083 23.182 10.2574L23.7183 9.30383C24.2995 8.26811 23.9521 6.9444 22.9451 6.34601L12.742 0.292768C11.7298 -0.308823 10.4348 0.0463715 9.85048 1.08636L9.31413 2.03994C8.89361 2.7898 8.77883 3.68045 8.99691 4.5167C9.17118 5.18549 9.54787 5.77642 10.0654 6.20734L8.67344 8.68517C8.05987 9.77742 6.89848 10.4206 5.67448 10.3449L4.85743 10.2947C3.65221 10.2201 2.5096 10.8505 1.90647 11.9257L0.425776 14.5603C-0.45179 16.1219 0.0709929 18.1186 1.59134 19.021Z" fill="#F4F9FF"/>
</svg>
